<svg xmlns="http://www.w3.org/2000/svg" viewBox="0 0 1200 520" width="1200" height="520"><defs><filter id="glow" x="-50%" y="-50%" width="200%" height="200%"><feGaussianBlur stdDeviation="8" result="b"/><feMerge><feMergeNode in="b"/><feMergeNode in="SourceGraphic"/></feMerge></filter><filter id="soft" x="-50%" y="-50%" width="200%" height="200%"><feGaussianBlur stdDeviation="10"/></filter><radialGradient id="bg" cx="30%" cy="10%" r="100%"><stop offset="0" stop-color="#312e81"/><stop offset="0.45" stop-color="#111827"/><stop offset="1" stop-color="#030712"/></radialGradient><linearGradient id="gloss" x1="0" y1="0" x2="1" y2="0"><stop offset="0" stop-color="#fff" stop-opacity="0"/><stop offset="0.28" stop-color="#fff" stop-opacity="0.35"/><stop offset="0.42" stop-color="#fff" stop-opacity="0"/></linearGradient><linearGradient id="sidef43f5e" x1="0" y1="0" x2="1" y2="0"><stop offset="0" stop-color="#862233"/><stop offset="0.35" stop-color="#ff486c"/><stop offset="0.7" stop-color="#f43f5e"/><stop offset="1" stop-color="#6d1c2a"/></linearGradient><radialGradient id="topf43f5e" cx="40%" cy="40%" r="70%"><stop offset="0" stop-color="#ff6496"/><stop offset="1" stop-color="#ff4262"/></radialGradient><linearGradient id="side10b981" x1="0" y1="0" x2="1" y2="0"><stop offset="0" stop-color="#086546"/><stop offset="0.35" stop-color="#12d494"/><stop offset="0.7" stop-color="#10b981"/><stop offset="1" stop-color="#07533a"/></linearGradient><radialGradient id="top10b981" cx="40%" cy="40%" r="70%"><stop offset="0" stop-color="#19ffce"/><stop offset="1" stop-color="#10c287"/></radialGradient></defs><rect width="1200" height="520" rx="24" fill="url(#bg)"/><line x1="0" y1="0" x2="1200" y2="0" stroke="#ffffff" stroke-opacity="0.03"/><line x1="0" y1="32" x2="1200" y2="32" stroke="#ffffff" stroke-opacity="0.03"/><line x1="0" y1="64" x2="1200" y2="64" stroke="#ffffff" stroke-opacity="0.03"/><line x1="0" y1="96" x2="1200" y2="96" stroke="#ffffff" stroke-opacity="0.03"/><line x1="0" y1="128" x2="1200" y2="128" stroke="#ffffff" stroke-opacity="0.03"/><line x1="0" y1="160" x2="1200" y2="160" stroke="#ffffff" stroke-opacity="0.03"/><line x1="0" y1="192" x2="1200" y2="192" stroke="#ffffff" stroke-opacity="0.03"/><line x1="0" y1="224" x2="1200" y2="224" stroke="#ffffff" stroke-opacity="0.03"/><line x1="0" y1="256" x2="1200" y2="256" stroke="#ffffff" stroke-opacity="0.03"/><line x1="0" y1="288" x2="1200" y2="288" stroke="#ffffff" stroke-opacity="0.03"/><line x1="0" y1="320" x2="1200" y2="320" stroke="#ffffff" stroke-opacity="0.03"/><line x1="0" y1="352" x2="1200" y2="352" stroke="#ffffff" stroke-opacity="0.03"/><line x1="0" y1="384" x2="1200" y2="384" stroke="#ffffff" stroke-opacity="0.03"/><line x1="0" y1="416" x2="1200" y2="416" stroke="#ffffff" stroke-opacity="0.03"/><line x1="0" y1="448" x2="1200" y2="448" stroke="#ffffff" stroke-opacity="0.03"/><line x1="0" y1="480" x2="1200" y2="480" stroke="#ffffff" stroke-opacity="0.03"/><line x1="0" y1="512" x2="1200" y2="512" stroke="#ffffff" stroke-opacity="0.03"/><rect x="1" y="1" width="1198" height="518" rx="24" fill="none" stroke="#6366f1" stroke-opacity="0.35"/><text x="70" y="92" font-family="Inter,Segoe UI,Helvetica Neue,Helvetica,Arial,sans-serif" font-size="22" fill="#a5b4fc" font-weight="700" text-anchor="start" letter-spacing="3">lean-tokens</text><text x="70" y="170" font-family="Inter,Segoe UI,Helvetica Neue,Helvetica,Arial,sans-serif" font-size="108" fill="#34d399" font-weight="900" text-anchor="start" filter="url(#glow)">−86%</text><text x="70" y="220" font-family="Inter,Segoe UI,Helvetica Neue,Helvetica,Arial,sans-serif" font-size="28" fill="#f9fafb" font-weight="700" text-anchor="start" >token usage per active hour</text><text x="70" y="262" font-family="Inter,Segoe UI,Helvetica Neue,Helvetica,Arial,sans-serif" font-size="22" fill="#c7d2fe" font-weight="500" text-anchor="start" >Same model. Same speed. Same quality.</text><text x="70" y="300" font-family="Inter,Segoe UI,Helvetica Neue,Helvetica,Arial,sans-serif" font-size="16" fill="#94a3b8" font-weight="400" text-anchor="start" >Measured on a real multi-day, multi-agent build.</text><rect x="70" y="330" width="184" height="40" rx="20" fill="#8b5cf6" fill-opacity="0.16" stroke="#8b5cf6" stroke-opacity="0.7"/><text x="162" y="356" font-family="Inter,Segoe UI,Helvetica Neue,Helvetica,Arial,sans-serif" font-size="15" fill="#d08aff" font-weight="600" text-anchor="middle" >fresh small agents</text><rect x="270" y="330" width="184" height="40" rx="20" fill="#3b82f6" fill-opacity="0.16" stroke="#3b82f6" stroke-opacity="0.7"/><text x="362" y="356" font-family="Inter,Segoe UI,Helvetica Neue,Helvetica,Arial,sans-serif" font-size="15" fill="#58c3ff" font-weight="600" text-anchor="middle" >one-shot waits</text><rect x="470" y="330" width="184" height="40" rx="20" fill="#f59e0b" fill-opacity="0.16" stroke="#f59e0b" stroke-opacity="0.7"/><text x="562" y="356" font-family="Inter,Segoe UI,Helvetica Neue,Helvetica,Arial,sans-serif" font-size="15" fill="#ffed10" font-weight="600" text-anchor="middle" >short reports</text><ellipse cx="808" cy="436" rx="87.5" ry="24.640000000000004" fill="#000" opacity="0.45" filter="url(#soft)"/><path d="M730,130.0 L730,430 A70,22.400000000000002 0 0 0 870,430 L870,130.0 Z" fill="url(#sidef43f5e)"/><path d="M730,130.0 L730,430 A70,22.400000000000002 0 0 0 870,430 L870,130.0 Z" fill="url(#gloss)"/><ellipse cx="800" cy="130.0" rx="70" ry="22.400000000000002" fill="url(#topf43f5e)"/><ellipse cx="800" cy="130.0" rx="70" ry="22.400000000000002" fill="none" stroke="#ff71a9" stroke-opacity="0.6"/><text x="800" y="86.0" font-family="Inter,Segoe UI,Helvetica Neue,Helvetica,Arial,sans-serif" font-size="30" fill="#fda4af" font-weight="800" text-anchor="middle" >17.5M / h</text><text x="800" y="482" font-family="Inter,Segoe UI,Helvetica Neue,Helvetica,Arial,sans-serif" font-size="18" fill="#cbd5e1" font-weight="600" text-anchor="middle" >Before</text><ellipse cx="1018" cy="436" rx="87.5" ry="24.640000000000004" fill="#000" opacity="0.45" filter="url(#soft)"/><path d="M940,388.8571428571429 L940,430 A70,22.400000000000002 0 0 0 1080,430 L1080,388.8571428571429 Z" fill="url(#side10b981)"/><path d="M940,388.8571428571429 L940,430 A70,22.400000000000002 0 0 0 1080,430 L1080,388.8571428571429 Z" fill="url(#gloss)"/><ellipse cx="1010" cy="388.8571428571429" rx="70" ry="22.400000000000002" fill="url(#top10b981)"/><ellipse cx="1010" cy="388.8571428571429" rx="70" ry="22.400000000000002" fill="none" stroke="#1cffe8" stroke-opacity="0.6"/><text x="1010" y="344.8571428571429" font-family="Inter,Segoe UI,Helvetica Neue,Helvetica,Arial,sans-serif" font-size="30" fill="#6ee7b7" font-weight="800" text-anchor="middle" filter="url(#glow)">2.4M / h</text><text x="1010" y="482" font-family="Inter,Segoe UI,Helvetica Neue,Helvetica,Arial,sans-serif" font-size="18" fill="#cbd5e1" font-weight="600" text-anchor="middle" >With lean-tokens</text></svg>